<svg width="43" height="39" viewBox="0 0 43 39" fill="none" xmlns="http://www.w3.org/2000/svg">
<g filter="url(#filter0_i_13741_214907)">
<path d="M0.000244141 39H7.81843V15.6H0.000244141V39ZM43.0002 17.55C43.0002 15.405 41.2412 13.65 39.0912 13.65H26.758L28.6148 4.7385L28.6734 4.1145C28.6734 3.315 28.3412 2.574 27.8134 2.0475L25.7416 0L12.8807 12.8505C12.1575 13.5525 11.7275 14.5275 11.7275 15.6V35.1C11.7275 37.245 13.4866 39 15.6366 39H33.2275C34.8498 39 36.2375 38.025 36.8239 36.621L42.7266 22.8735C42.9025 22.425 43.0002 21.957 43.0002 21.45V17.55Z" fill="#C4C4C4"/>
<path d="M0.000244141 39H7.81843V15.6H0.000244141V39ZM43.0002 17.55C43.0002 15.405 41.2412 13.65 39.0912 13.65H26.758L28.6148 4.7385L28.6734 4.1145C28.6734 3.315 28.3412 2.574 27.8134 2.0475L25.7416 0L12.8807 12.8505C12.1575 13.5525 11.7275 14.5275 11.7275 15.6V35.1C11.7275 37.245 13.4866 39 15.6366 39H33.2275C34.8498 39 36.2375 38.025 36.8239 36.621L42.7266 22.8735C42.9025 22.425 43.0002 21.957 43.0002 21.45V17.55Z" fill="#43B02A"/>
</g>
<defs>
<filter id="filter0_i_13741_214907" x="0.000244141" y="0" width="47" height="43" filterUnits="userSpaceOnUse" color-interpolation-filters="sRGB">
<feFlood flood-opacity="0" result="BackgroundImageFix"/>
<feBlend mode="normal" in="SourceGraphic" in2="BackgroundImageFix" result="shape"/>
<feColorMatrix in="SourceAlpha" type="matrix" values="0 0 0 0 0 0 0 0 0 0 0 0 0 0 0 0 0 0 127 0" result="hardAlpha"/>
<feOffset dx="4" dy="5"/>
<feGaussianBlur stdDeviation="2"/>
<feComposite in2="hardAlpha" operator="arithmetic" k2="-1" k3="1"/>
<feColorMatrix type="matrix" values="0 0 0 0 0 0 0 0 0 0.258824 0 0 0 0 0.262745 0 0 0 1 0"/>
<feBlend mode="normal" in2="shape" result="effect1_innerShadow_13741_214907"/>
</filter>
</defs>
</svg>
